# xmcd
#
# Track frame offsets:
#	150
#	28608
#	45887
#	62110
#	82315
#	100312
#	117869
#	136192
#	146574
#	164186
#	180691
#	196776
#
# Disc length: 2896 seconds
#
# Revision: 1
# Processed by: cddbd v1.5.2PL0 Copyright (c) Steve Scherf et al.
# Submitted via: audiograbber 1.83.01
#
DISCID=a70b4e0c
DTITLE=Diversen - Velsen Noord deel 1
DYEAR=2002
DGENRE=Pop
TTITLE0=Clear.nl - Ode aan Velsen Noord
TTITLE1=Fisher's Friends - Velsen Noord zonder zorgen
TTITLE2=Boules Blues Band - The bloody blue seven seas
TTITLE3=Winkel - Geen randweg
TTITLE4=Fisher's Friends - Kernafval
TTITLE5=Fisher's Friends - De Hoogovenstrein
TTITLE6=Fisher's Friends - Corverslaan
TTITLE7=Fisher's Friends - Peter Stam
TTITLE8=Fisher's Friends - Je staat bijna nooit stil
TTITLE9=JPS Collectief - Het landje
TTITLE10=Durango and Friends - Watervliet
TTITLE11=Winkel - Zomer in Velsen Noord
EXTD=
EXTT0=
EXTT1=
EXTT2=
EXTT3=
EXTT4=
EXTT5=
EXTT6=
EXTT7=
EXTT8=
EXTT9=
EXTT10=
EXTT11=
PLAYORDER=
